<svg width="27" height="28" viewBox="0 0 27 28" fill="none" xmlns="http://www.w3.org/2000/svg">
<path d="M13.5 0C6.04462 0 0 6.16801 0 13.7775C0 21.3861 6.04462 27.555 13.5 27.555C20.9554 27.555 27 21.3861 27 13.7775C27 6.16801 20.9554 0 13.5 0ZM9.99337 19.1826H7.23938V10.7266H9.99337V19.1826ZM8.61637 9.57191H8.59866C7.67391 9.57191 7.07653 8.92179 7.07653 8.11064C7.07653 7.2814 7.69247 6.65022 8.63409 6.65022C9.57572 6.65022 10.1562 7.2814 10.1739 8.11064C10.1739 8.92265 9.57572 9.57191 8.61637 9.57191ZM19.9235 19.1826H17.1695V14.6584C17.1695 13.5217 16.7712 12.7468 15.7739 12.7468C15.0137 12.7468 14.5606 13.2694 14.3615 13.7749C14.2889 13.9557 14.2703 14.208 14.2703 14.4603V19.1826H11.5172C11.5172 19.1826 11.5535 11.5206 11.5172 10.7266H14.2712V11.9244C14.6365 11.3483 15.2913 10.5277 16.7535 10.5277C18.565 10.5277 19.9235 11.7367 19.9235 14.3338V19.1826Z" fill="white"/>
</svg>
