<svg width="26" height="26" viewBox="0 0 26 26" fill="none" xmlns="http://www.w3.org/2000/svg">
<path fill-rule="evenodd" clip-rule="evenodd" d="M0 12.9717C0 20.1347 5.69175 25.9435 12.7105 25.9435C19.7292 25.9435 25.4209 20.1347 25.4209 12.9717C25.4209 5.80875 19.7292 0 12.7105 0C5.69175 0 0 5.80875 0 12.9717ZM19.3073 7.2642C20.0343 7.46396 20.6063 8.05028 20.7995 8.79745C21.1503 10.1491 21.1503 12.9717 21.1503 12.9717C21.1503 12.9717 21.1503 15.7944 20.7969 17.1461C20.6037 17.8933 20.0318 18.4796 19.3047 18.6793C17.9905 19.0425 12.7105 19.0425 12.7105 19.0425C12.7105 19.0425 7.43315 19.0425 6.11634 18.6793C5.3893 18.4796 4.81733 17.8933 4.62413 17.1461C4.27078 15.7944 4.27078 12.9717 4.27078 12.9717C4.27078 12.9717 4.27078 10.1491 4.62667 8.79745C4.81987 8.05028 5.39184 7.46396 6.11888 7.2642C7.43315 6.90099 12.7131 6.90098 12.7131 6.90098C12.7131 6.90098 17.9905 6.90099 19.3073 7.2642ZM15.395 12.9717L10.9845 10.4112V15.5324L15.395 12.9717Z" fill="white"/>
</svg>
