<svg width="27" height="29" viewBox="0 0 27 29" fill="none" xmlns="http://www.w3.org/2000/svg">
<path fill-rule="evenodd" clip-rule="evenodd" d="M13.5 0.889038C6.04401 0.889038 0 7.05753 0 14.6663C0 22.2756 6.04401 28.444 13.5 28.444C20.9555 28.444 27 22.2756 27 14.6663C27 7.05753 20.9555 0.889038 13.5 0.889038ZM17.0555 11.5635L16.8623 14.0358H14.2867V22.6256H11.0333V14.0358H9.29694V11.5635H11.0333V9.90184C11.0333 9.17083 11.0521 8.04065 11.5924 7.34082C12.1616 6.60087 12.9434 6.0977 14.2867 6.0977C16.4761 6.0977 17.3993 6.40427 17.3993 6.40427L16.965 8.93655C16.965 8.93655 16.2418 8.73055 15.5665 8.73055C14.8913 8.73055 14.2867 8.96779 14.2867 9.63289V11.5635H17.0555Z" fill="white"/>
</svg>
