<svg width="27" height="28" viewBox="0 0 27 28" fill="none" xmlns="http://www.w3.org/2000/svg">
<path fill-rule="evenodd" clip-rule="evenodd" d="M13.5 6.10352e-05C6.04446 6.10352e-05 0 6.16856 0 13.7773C0 21.3866 6.04446 27.555 13.5 27.555C20.956 27.555 27 21.3866 27 13.7773C27 6.16856 20.956 6.10352e-05 13.5 6.10352e-05ZM20.0973 10.3159C20.1036 10.465 20.107 10.6156 20.107 10.7661C20.107 15.3686 16.6832 20.6758 10.4218 20.6758C8.49909 20.6758 6.71001 20.0994 5.20361 19.1109C5.46988 19.143 5.74091 19.1598 6.01586 19.1598C7.61034 19.1598 9.07804 18.6026 10.2432 17.6686C8.75372 17.6408 7.49661 16.6334 7.06339 15.2502C7.27155 15.2908 7.48453 15.3125 7.70381 15.3125C8.01412 15.3125 8.31516 15.27 8.60079 15.1902C7.04353 14.8704 5.87019 13.4628 5.87019 11.7754C5.87019 11.7605 5.87019 11.7462 5.87019 11.7313C6.32906 11.9924 6.85427 12.1489 7.4124 12.1672C6.49896 11.5426 5.89776 10.4763 5.89776 9.26787C5.89776 8.62999 6.06574 8.03172 6.35856 7.51711C8.03777 9.62449 10.5457 11.0107 13.375 11.1563C13.317 10.9013 13.287 10.6353 13.287 10.3624C13.287 8.43879 14.8112 6.8797 16.6909 6.8797C17.6701 6.8797 18.5545 7.30269 19.1755 7.97969C19.951 7.82315 20.6796 7.53342 21.3374 7.13424C21.0833 7.94746 20.5435 8.62993 19.8407 9.06127C20.529 8.97708 21.1854 8.78989 21.7958 8.51252C21.3394 9.2115 20.7624 9.82457 20.0973 10.3159Z" fill="white"/>
</svg>
